<svg id="svg" version="1.1" viewBox="100 45 150 245" xmlns="http://www.w3.org/2000/svg" xmlns:xlink="http://www.w3.org/1999/xlink"><g id="svgg"><path id="path0" d="M208.076 45.277 C 208.969 46.257,209.003 46.269,208.899 45.561 C 208.855 45.261,208.692 45.013,208.537 45.011 C 208.382 45.008,208.045 44.880,207.788 44.727 C 207.531 44.573,207.661 44.821,208.076 45.277 M162.189 81.065 C 161.757 81.617,161.486 82.143,161.586 82.233 C 161.686 82.324,161.826 82.236,161.897 82.038 C 161.968 81.840,162.299 81.363,162.633 80.978 C 162.967 80.593,163.240 80.230,163.240 80.170 C 163.240 79.868,162.897 80.160,162.189 81.065 M225.121 103.505 C 224.786 123.302,224.893 256.698,225.244 256.698 C 225.437 256.698,225.545 227.026,225.545 173.832 C 225.545 128.255,225.498 90.966,225.439 90.966 C 225.381 90.966,225.238 96.608,225.121 103.505 M186.293 119.237 C 186.293 119.385,186.496 119.779,186.745 120.112 C 187.181 120.695,187.190 120.692,187.019 120.011 C 186.841 119.308,186.293 118.723,186.293 119.237 M105.310 140.404 C 104.621 141.038,103.898 142.054,103.703 142.663 C 103.508 143.271,103.142 144.005,102.891 144.293 C 102.640 144.582,102.385 145.342,102.326 145.983 C 102.266 146.625,101.897 147.580,101.504 148.107 C 101.017 148.762,100.774 149.551,100.737 150.599 C 100.695 151.787,100.525 152.252,99.981 152.662 C 99.435 153.074,99.246 153.596,99.128 155.008 C 99.024 156.269,98.800 156.972,98.396 157.306 C 97.956 157.671,97.765 158.396,97.611 160.280 C 97.463 162.096,97.266 162.874,96.883 163.146 C 96.469 163.441,96.313 164.255,96.146 166.992 C 96.006 169.298,95.790 170.610,95.503 170.897 C 94.450 171.949,94.360 198.561,95.402 200.587 C 95.770 201.303,96.008 202.753,96.143 205.104 C 96.281 207.519,96.511 208.897,96.904 209.657 C 97.214 210.257,97.558 211.559,97.668 212.551 C 97.811 213.848,98.036 214.460,98.466 214.729 C 98.910 215.006,99.065 215.459,99.065 216.472 C 99.065 218.164,99.668 220.261,100.215 220.471 C 100.439 220.557,100.623 221.084,100.623 221.642 C 100.623 222.209,100.919 223.033,101.292 223.508 C 101.660 223.975,102.081 225.000,102.227 225.784 C 102.374 226.569,102.691 227.432,102.931 227.702 C 103.172 227.972,103.529 228.796,103.726 229.533 C 103.922 230.270,104.275 230.947,104.510 231.037 C 104.745 231.128,105.031 231.753,105.145 232.427 C 105.267 233.148,105.591 233.781,105.934 233.964 C 106.254 234.135,106.606 234.759,106.717 235.351 C 106.828 235.942,107.116 236.590,107.357 236.790 C 107.598 236.990,108.077 237.731,108.422 238.437 C 109.350 240.337,109.895 241.229,110.345 241.583 C 110.567 241.758,110.991 242.426,111.288 243.069 C 111.585 243.711,111.955 244.237,112.111 244.237 C 112.266 244.237,112.480 244.583,112.587 245.007 C 112.693 245.430,113.059 245.926,113.399 246.108 C 113.740 246.290,114.019 246.615,114.019 246.829 C 114.019 247.209,115.026 248.557,116.433 250.059 C 116.819 250.470,117.134 250.901,117.134 251.016 C 117.134 251.256,116.929 251.036,122.879 257.165 C 125.375 259.735,127.521 261.948,127.649 262.082 C 127.777 262.216,129.003 263.379,130.374 264.666 C 131.745 265.953,133.148 267.277,133.494 267.608 C 133.839 267.939,134.575 268.301,135.129 268.412 C 135.683 268.523,136.137 268.802,136.137 269.031 C 136.137 269.261,136.452 269.617,136.838 269.822 C 137.224 270.027,137.682 270.388,137.856 270.625 C 138.180 271.064,138.884 271.509,140.810 272.495 C 141.410 272.802,141.947 273.158,142.004 273.287 C 142.166 273.651,145.347 275.701,145.751 275.701 C 145.948 275.701,146.420 276.057,146.799 276.493 C 147.225 276.983,147.748 277.251,148.170 277.196 C 148.595 277.140,149.152 277.429,149.645 277.961 C 150.175 278.533,150.752 278.816,151.387 278.816 C 151.909 278.816,152.336 278.946,152.336 279.105 C 152.336 279.688,153.339 280.374,154.190 280.374 C 154.725 280.374,155.230 280.622,155.492 281.013 C 155.811 281.490,156.386 281.700,157.759 281.840 C 158.919 281.959,159.808 282.237,160.164 282.594 C 160.530 282.960,161.138 283.144,161.889 283.116 C 162.547 283.091,163.103 283.233,163.173 283.444 C 163.332 283.922,165.271 284.735,166.250 284.735 C 166.664 284.735,167.430 285.051,167.951 285.436 C 168.660 285.960,169.326 286.137,170.587 286.137 C 171.596 286.137,172.274 286.273,172.274 286.476 C 172.274 286.888,173.772 287.613,174.145 287.382 C 174.292 287.291,174.500 287.360,174.607 287.534 C 174.715 287.708,175.846 287.850,177.121 287.850 C 178.396 287.850,179.439 287.977,179.439 288.132 C 179.439 289.330,213.463 289.653,214.650 288.466 C 214.988 288.127,215.537 287.850,215.869 287.850 C 216.202 287.850,216.557 287.716,216.658 287.553 C 216.760 287.389,217.048 287.334,217.300 287.430 C 217.710 287.588,217.795 287.444,217.740 286.682 C 217.731 286.554,218.327 286.304,219.064 286.126 C 219.939 285.916,220.509 285.570,220.704 285.133 C 220.869 284.764,221.238 284.401,221.524 284.326 C 221.810 284.251,222.222 283.653,222.438 282.996 C 222.655 282.339,223.091 281.586,223.406 281.321 C 223.789 281.001,224.046 280.221,224.181 278.972 C 224.291 277.944,224.600 276.852,224.867 276.546 C 225.600 275.703,225.583 271.434,224.844 270.892 C 224.461 270.611,224.299 270.063,224.299 269.053 C 224.299 267.604,223.509 265.109,223.050 265.109 C 222.914 265.109,222.656 264.688,222.477 264.174 C 222.297 263.660,221.966 263.240,221.741 263.240 C 221.516 263.240,221.188 262.924,221.013 262.539 C 220.837 262.153,220.521 261.874,220.309 261.918 C 220.097 261.962,219.789 261.643,219.624 261.209 C 219.459 260.775,219.077 260.325,218.774 260.210 C 218.472 260.094,217.991 259.712,217.706 259.361 C 217.287 258.844,216.827 258.723,215.281 258.723 C 214.232 258.723,213.274 258.568,213.151 258.380 C 212.448 257.299,211.421 257.166,202.960 257.061 C 195.131 256.964,194.509 256.915,193.987 256.356 C 193.679 256.026,193.048 255.757,192.586 255.758 C 190.056 255.765,187.018 255.337,186.531 254.907 C 186.172 254.590,185.196 254.397,183.635 254.333 C 181.616 254.252,181.196 254.135,180.698 253.521 C 180.204 252.912,179.831 252.805,178.220 252.815 C 176.968 252.822,176.324 252.701,176.324 252.459 C 176.324 252.013,174.114 251.090,173.047 251.090 C 172.622 251.090,171.995 250.811,171.653 250.469 C 171.217 250.033,170.663 249.863,169.789 249.897 C 168.806 249.936,168.385 249.772,167.777 249.116 C 167.268 248.567,166.687 248.287,166.058 248.287 C 165.536 248.287,165.109 248.156,165.109 247.997 C 165.109 247.377,164.081 246.729,163.098 246.729 C 162.340 246.729,162.025 246.569,161.909 246.127 C 161.803 245.720,161.360 245.451,160.549 245.300 C 159.887 245.177,159.161 244.815,158.935 244.496 C 158.709 244.176,158.414 243.983,158.279 244.066 C 158.145 244.149,157.711 243.874,157.316 243.453 C 156.921 243.033,156.143 242.603,155.586 242.499 C 154.932 242.376,154.517 242.088,154.411 241.682 C 154.321 241.338,154.068 241.115,153.849 241.188 C 153.631 241.261,153.053 240.913,152.567 240.415 C 152.063 239.900,151.487 239.584,151.230 239.683 C 150.982 239.778,150.779 239.720,150.779 239.554 C 150.779 239.388,150.560 239.252,150.293 239.252 C 150.026 239.252,149.884 239.128,149.978 238.976 C 150.201 238.616,149.335 237.899,148.959 238.132 C 148.799 238.230,148.596 238.033,148.507 237.693 C 148.418 237.353,148.087 236.980,147.771 236.864 C 147.455 236.749,146.859 236.325,146.447 235.922 C 146.034 235.519,145.368 235.107,144.967 235.007 C 144.565 234.906,144.237 234.625,144.237 234.382 C 144.237 234.140,143.886 233.808,143.458 233.645 C 143.030 233.482,142.679 233.202,142.679 233.023 C 142.679 232.844,142.341 232.543,141.927 232.354 C 141.513 232.166,141.105 231.748,141.021 231.426 C 140.937 231.104,140.654 230.841,140.393 230.841 C 140.131 230.841,139.828 230.561,139.720 230.218 C 139.611 229.875,139.412 229.595,139.278 229.595 C 139.000 229.595,133.956 224.684,133.956 224.412 C 133.956 224.314,132.940 223.207,131.698 221.952 C 128.507 218.729,127.726 217.811,127.726 217.287 C 127.726 217.034,127.445 216.653,127.103 216.439 C 126.760 216.225,126.480 215.874,126.480 215.660 C 126.480 215.445,126.199 215.095,125.857 214.881 C 125.514 214.667,125.234 214.325,125.234 214.121 C 125.234 213.917,124.826 213.460,124.328 213.105 C 123.674 212.639,123.469 212.283,123.591 211.820 C 123.700 211.400,123.489 210.890,122.978 210.340 C 122.216 209.522,121.704 208.677,120.724 206.620 C 120.458 206.063,120.032 205.607,119.778 205.607 C 119.469 205.607,119.315 205.290,119.315 204.658 C 119.315 204.045,119.038 203.452,118.536 202.987 C 118.090 202.574,117.757 201.919,117.757 201.456 C 117.757 201.011,117.502 200.397,117.191 200.090 C 116.879 199.783,116.453 198.937,116.243 198.209 C 116.034 197.481,115.678 196.885,115.452 196.885 C 115.180 196.885,114.978 196.276,114.856 195.093 C 114.724 193.817,114.488 193.153,114.034 192.785 C 113.653 192.476,113.396 191.899,113.396 191.352 C 113.396 190.273,112.817 188.474,112.470 188.474 C 112.153 188.474,111.747 186.679,111.822 185.613 C 111.856 185.121,111.616 184.513,111.236 184.133 C 110.793 183.691,110.588 183.075,110.578 182.165 C 110.558 180.178,110.106 178.210,109.573 177.789 C 109.211 177.502,109.065 176.506,108.953 173.542 C 108.818 169.967,108.752 169.625,108.090 169.089 L 107.373 168.508 107.365 157.852 C 107.357 148.149,107.405 147.121,107.910 146.353 C 108.215 145.890,108.361 145.342,108.234 145.137 C 108.078 144.885,108.136 144.846,108.412 145.016 C 108.717 145.204,108.776 145.097,108.645 144.597 C 108.549 144.228,108.597 143.847,108.752 143.751 C 109.112 143.529,109.124 141.745,108.766 141.745 C 108.618 141.745,108.561 141.411,108.639 141.004 C 108.739 140.480,108.570 140.115,108.059 139.758 C 107.031 139.037,106.717 139.111,105.310 140.404 M145.171 231.642 C 145.171 231.932,146.105 232.779,146.116 232.499 C 146.121 232.358,146.332 232.515,146.583 232.848 C 146.835 233.180,147.040 233.311,147.040 233.138 C 147.040 232.964,146.689 232.517,146.259 232.143 C 145.468 231.456,145.171 231.319,145.171 231.642 M167.656 240.869 C 167.626 243.215,167.706 245.200,167.835 245.280 C 167.963 245.360,168.020 244.650,167.960 243.703 C 167.884 242.507,167.955 242.046,168.193 242.193 C 168.386 242.312,168.536 242.192,168.536 241.919 C 168.536 241.652,168.396 241.433,168.224 241.433 C 168.053 241.433,167.913 241.083,167.913 240.654 C 167.913 240.226,168.053 239.875,168.224 239.875 C 168.396 239.875,168.536 239.657,168.536 239.390 C 168.536 239.123,168.404 238.986,168.243 239.085 C 168.081 239.185,167.895 238.668,167.830 237.935 C 167.764 237.203,167.686 238.524,167.656 240.869 M152.408 237.441 C 152.563 237.907,153.271 238.163,153.271 237.754 C 153.271 237.587,153.049 237.365,152.778 237.261 C 152.474 237.144,152.332 237.214,152.408 237.441 M160.008 241.993 C 159.923 242.130,159.983 242.445,160.140 242.694 C 160.337 243.004,160.428 243.024,160.431 242.757 C 160.434 242.543,160.725 242.368,161.078 242.368 C 161.430 242.368,161.632 242.227,161.526 242.056 C 161.297 241.685,160.226 241.640,160.008 241.993 M172.664 247.894 C 172.449 247.967,172.274 248.167,172.274 248.339 C 172.274 248.510,172.448 248.592,172.661 248.521 C 172.873 248.450,173.234 248.579,173.462 248.807 C 173.914 249.259,174.461 249.359,174.445 248.988 C 174.428 248.586,173.073 247.754,172.664 247.894 M176.394 249.588 C 176.630 250.295,177.522 250.641,177.951 250.192 C 178.279 249.847,178.231 249.810,177.674 249.978 C 177.303 250.090,176.910 250.037,176.801 249.860 C 176.686 249.675,176.793 249.613,177.055 249.713 C 177.304 249.809,177.600 249.737,177.713 249.554 C 177.839 249.350,177.600 249.221,177.095 249.221 C 176.602 249.221,176.321 249.368,176.394 249.588 M204.361 255.322 C 204.361 255.919,204.758 256.080,205.248 255.683 C 205.649 255.357,205.691 255.385,205.512 255.863 C 205.341 256.318,205.435 256.410,205.995 256.330 C 206.378 256.275,206.741 255.969,206.802 255.648 C 206.871 255.287,206.784 255.146,206.572 255.277 C 206.384 255.394,206.231 255.375,206.231 255.236 C 206.231 255.098,205.810 254.984,205.296 254.984 C 204.782 254.984,204.361 255.136,204.361 255.322 M207.680 256.464 C 207.760 256.593,209.522 256.698,211.597 256.698 C 213.671 256.698,215.289 256.619,215.192 256.522 C 214.924 256.253,207.515 256.197,207.680 256.464 M223.832 257.632 C 223.644 257.937,223.871 258.068,224.415 257.968 C 224.565 257.941,224.591 258.170,224.475 258.476 C 224.321 258.879,224.357 258.940,224.602 258.697 C 224.962 258.341,224.726 257.321,224.284 257.321 C 224.141 257.321,223.938 257.461,223.832 257.632 " stroke="none" fill="#333533" fill-rule="evenodd"></path><path id="path1" d="M204.228 45.093 C 203.911 45.393,203.749 45.463,203.869 45.249 C 204.338 44.411,203.531 44.928,202.289 46.262 C 201.571 47.033,200.835 47.664,200.655 47.664 C 200.474 47.664,200.096 48.014,199.816 48.442 C 199.535 48.871,199.121 49.221,198.895 49.221 C 198.669 49.221,198.398 49.494,198.292 49.828 C 198.186 50.162,197.833 50.520,197.508 50.623 C 197.183 50.726,196.839 51.056,196.744 51.356 C 196.648 51.655,196.081 52.078,195.482 52.294 C 194.883 52.511,194.393 52.829,194.393 53.002 C 194.393 53.440,193.572 54.216,193.347 53.990 C 193.245 53.888,193.069 54.046,192.955 54.341 C 192.842 54.635,192.405 55.008,191.983 55.168 C 191.562 55.328,191.144 55.738,191.055 56.079 C 190.966 56.419,190.730 56.698,190.531 56.698 C 190.332 56.698,189.967 56.978,189.720 57.321 C 189.473 57.664,189.156 57.944,189.016 57.944 C 188.876 57.944,188.171 58.548,187.449 59.287 C 186.728 60.026,185.691 60.891,185.147 61.210 C 184.602 61.529,184.086 62.061,184.000 62.391 C 183.913 62.721,183.709 62.908,183.545 62.807 C 183.382 62.706,182.611 63.234,181.832 63.981 C 181.053 64.727,180.183 65.427,179.898 65.537 C 179.613 65.646,179.307 66.015,179.218 66.357 C 179.128 66.699,178.869 66.978,178.642 66.978 C 178.414 66.978,178.045 67.233,177.821 67.544 C 177.598 67.855,177.156 68.206,176.840 68.324 C 176.523 68.442,176.192 68.819,176.102 69.160 C 176.013 69.502,175.751 69.782,175.520 69.782 C 175.289 69.782,174.953 70.057,174.773 70.392 C 174.593 70.728,173.950 71.238,173.344 71.526 C 172.661 71.850,172.302 72.210,172.402 72.470 C 172.491 72.701,172.463 72.864,172.341 72.832 C 171.760 72.680,170.685 73.302,170.839 73.700 C 170.930 73.940,170.906 74.106,170.783 74.070 C 170.351 73.943,168.847 75.156,168.847 75.633 C 168.847 75.899,168.759 76.028,168.651 75.920 C 168.354 75.623,167.290 76.285,167.290 76.766 C 167.290 76.997,167.009 77.259,166.667 77.349 C 166.324 77.438,166.044 77.704,166.044 77.940 C 166.044 78.175,165.623 78.527,165.109 78.721 C 164.595 78.915,164.174 79.296,164.174 79.568 C 164.174 79.840,163.984 80.062,163.751 80.062 C 163.518 80.062,163.062 80.428,162.738 80.876 C 162.414 81.323,161.974 81.874,161.760 82.099 C 161.546 82.325,161.373 82.906,161.375 83.389 C 161.386 85.273,160.859 85.194,174.132 85.294 L 186.293 85.386 186.293 101.991 C 186.293 122.575,185.771 120.872,192.081 120.872 C 195.011 120.872,196.711 121.480,197.574 122.838 C 197.704 123.042,197.820 152.227,197.832 187.695 C 197.855 252.906,197.883 254.708,198.841 254.630 C 199.132 254.607,199.287 254.722,199.185 254.886 C 199.070 255.073,200.361 255.148,202.616 255.085 C 204.604 255.030,206.231 255.098,206.231 255.236 C 206.231 255.375,206.393 255.388,206.591 255.266 C 206.837 255.114,206.897 255.252,206.780 255.700 C 206.612 256.344,206.689 256.357,210.703 256.349 C 212.955 256.345,215.040 256.436,215.335 256.550 C 215.631 256.665,216.571 256.710,217.423 256.650 C 218.701 256.561,218.997 256.639,219.116 257.096 C 219.196 257.401,219.378 257.624,219.521 257.591 C 219.665 257.558,220.177 257.695,220.659 257.894 C 221.141 258.093,221.799 258.255,222.120 258.255 C 222.442 258.255,222.791 258.396,222.897 258.567 C 223.216 259.083,224.256 258.918,224.587 258.299 C 224.789 257.921,224.952 228.889,225.054 174.732 C 225.140 129.089,225.299 90.312,225.407 88.562 L 225.603 85.379 237.735 85.291 C 251.314 85.192,250.454 85.357,250.463 82.854 C 250.468 81.312,248.678 78.816,247.567 78.816 C 247.277 78.816,247.040 78.599,247.040 78.333 C 247.040 78.067,246.555 77.647,245.961 77.399 C 245.368 77.151,244.732 76.667,244.549 76.325 C 244.365 75.982,244.070 75.701,243.893 75.701 C 243.716 75.701,242.967 75.070,242.228 74.299 C 241.489 73.528,240.761 72.897,240.610 72.897 C 240.459 72.897,240.072 72.547,239.750 72.118 C 239.428 71.690,238.974 71.340,238.741 71.340 C 238.508 71.340,238.318 71.153,238.318 70.925 C 238.318 70.697,237.967 70.323,237.539 70.093 C 237.111 69.864,236.760 69.563,236.760 69.424 C 236.760 69.285,236.199 68.885,235.514 68.536 C 234.829 68.186,234.268 67.760,234.268 67.588 C 234.268 67.417,233.929 67.122,233.515 66.934 C 233.102 66.745,232.694 66.327,232.610 66.006 C 232.522 65.668,232.181 65.421,231.805 65.421 C 231.446 65.421,231.153 65.255,231.153 65.053 C 231.153 64.469,228.910 62.574,228.435 62.756 C 228.199 62.847,228.091 62.783,228.195 62.613 C 228.300 62.444,228.237 62.305,228.056 62.305 C 227.874 62.305,227.761 62.152,227.804 61.965 C 227.847 61.777,227.618 61.462,227.295 61.264 C 226.972 61.066,226.383 60.588,225.985 60.202 C 225.587 59.817,224.975 59.502,224.625 59.502 C 224.274 59.502,223.988 59.325,223.988 59.109 C 223.988 58.894,223.420 58.228,222.727 57.630 C 222.034 57.032,221.157 56.255,220.779 55.904 C 220.401 55.553,219.838 55.169,219.528 55.050 C 219.217 54.930,219.051 54.691,219.159 54.517 C 219.266 54.343,219.121 54.112,218.836 54.002 C 218.551 53.893,217.988 53.473,217.584 53.070 C 217.181 52.667,216.714 52.336,216.546 52.336 C 216.378 52.336,216.155 52.065,216.050 51.733 C 215.944 51.401,215.381 50.971,214.798 50.779 C 214.214 50.586,213.651 50.157,213.545 49.825 C 213.371 49.276,213.022 49.084,212.383 49.184 C 212.255 49.205,212.150 49.008,212.150 48.747 C 212.150 48.487,211.799 48.114,211.371 47.918 C 210.942 47.723,210.592 47.369,210.592 47.130 C 210.592 46.892,210.111 46.496,209.523 46.251 C 208.935 46.005,208.347 45.626,208.217 45.410 C 208.071 45.167,208.212 45.195,208.585 45.483 C 209.144 45.915,209.158 45.909,208.765 45.408 C 208.532 45.110,208.226 44.938,208.086 45.024 C 207.946 45.111,207.743 45.039,207.636 44.865 C 207.305 44.330,204.865 44.493,204.228 45.093 M157.956 124.580 C 157.373 124.739,157.127 125.085,156.933 126.019 C 156.509 128.059,156.783 160.205,157.225 160.353 C 157.430 160.421,157.526 160.664,157.438 160.892 C 157.170 161.589,159.090 161.953,163.229 161.990 C 165.365 162.008,167.187 162.099,167.279 162.190 C 167.370 162.282,167.521 179.623,167.613 200.727 C 167.791 241.578,167.756 239.386,168.224 239.097 C 168.396 238.991,168.536 239.123,168.536 239.390 C 168.536 239.657,168.396 239.875,168.224 239.875 C 168.053 239.875,167.913 240.226,167.913 240.654 C 167.913 241.083,168.053 241.433,168.224 241.433 C 168.396 241.433,168.536 241.652,168.536 241.919 C 168.536 242.186,168.396 242.318,168.224 242.212 C 168.032 242.093,167.913 242.620,167.913 243.584 C 167.913 244.843,168.038 245.216,168.551 245.491 C 168.992 245.727,169.130 246.018,168.997 246.436 C 168.785 247.106,169.151 247.235,169.702 246.684 C 169.970 246.417,170.015 246.494,169.884 246.996 C 169.701 247.696,169.617 247.669,172.499 247.813 C 172.880 247.832,173.547 248.157,173.981 248.534 C 174.571 249.048,175.169 249.221,176.345 249.221 C 177.381 249.221,177.848 249.335,177.713 249.554 C 177.600 249.737,177.304 249.809,177.055 249.713 C 176.793 249.613,176.686 249.675,176.801 249.860 C 176.910 250.037,177.286 250.090,177.635 249.979 C 178.022 249.857,178.196 249.899,178.080 250.087 C 177.863 250.438,178.860 250.768,180.159 250.775 C 180.640 250.777,180.957 250.903,180.863 251.055 C 180.554 251.554,181.526 252.043,183.222 252.242 C 184.156 252.352,185.280 252.725,185.774 253.088 C 187.060 254.036,193.574 254.071,194.261 253.134 C 194.973 252.162,194.923 125.497,194.210 124.784 C 193.692 124.266,159.808 124.075,157.956 124.580 M107.265 152.336 C 107.265 153.450,107.321 153.906,107.390 153.349 C 107.460 152.792,107.460 151.881,107.390 151.324 C 107.321 150.767,107.265 151.223,107.265 152.336 M107.267 162.150 C 107.269 163.349,107.325 163.801,107.392 163.155 C 107.460 162.509,107.459 161.527,107.390 160.974 C 107.321 160.421,107.266 160.950,107.267 162.150 M128.825 164.472 C 128.723 164.636,128.443 164.695,128.202 164.602 C 127.187 164.213,127.089 166.581,127.175 189.438 C 127.238 206.537,127.348 211.972,127.630 212.066 C 127.835 212.134,127.918 212.426,127.814 212.715 C 127.711 213.004,127.736 213.141,127.869 213.021 C 128.160 212.759,128.972 213.508,128.972 214.039 C 128.972 214.245,129.287 214.726,129.673 215.106 C 131.122 216.535,132.379 218.159,132.227 218.405 C 132.141 218.546,132.354 218.812,132.702 218.998 C 133.049 219.184,133.333 219.489,133.333 219.676 C 133.333 219.863,133.999 220.687,134.813 221.507 C 135.627 222.328,136.461 223.186,136.667 223.415 C 136.873 223.644,137.245 223.999,137.492 224.204 C 137.740 224.408,137.992 224.713,138.052 224.881 C 138.113 225.049,138.372 225.232,138.629 225.288 C 138.886 225.344,139.172 225.670,139.265 226.012 C 139.358 226.355,139.743 226.680,140.122 226.735 C 140.500 226.790,140.810 226.971,140.810 227.137 C 140.810 227.551,143.173 229.907,143.589 229.907 C 143.774 229.907,143.925 230.105,143.925 230.348 C 143.925 230.590,144.347 230.976,144.863 231.204 C 145.379 231.433,145.741 231.777,145.667 231.970 C 145.593 232.163,145.765 232.304,146.049 232.282 C 146.334 232.261,146.701 232.546,146.865 232.916 C 147.029 233.286,147.657 233.824,148.260 234.111 C 148.863 234.399,149.544 234.902,149.774 235.230 C 150.003 235.557,150.393 235.826,150.641 235.826 C 150.888 235.826,151.090 235.976,151.090 236.159 C 151.090 236.571,151.900 237.410,152.242 237.352 C 152.942 237.233,153.320 237.430,153.166 237.832 C 153.048 238.138,153.336 238.394,154.069 238.636 C 154.661 238.831,155.288 239.258,155.463 239.585 C 155.638 239.912,156.128 240.267,156.551 240.373 C 156.974 240.479,157.331 240.726,157.343 240.922 C 157.355 241.117,157.485 240.997,157.632 240.654 C 157.892 240.049,157.901 240.051,157.922 240.702 C 157.948 241.485,159.281 242.071,160.505 241.837 C 160.941 241.754,161.392 241.839,161.508 242.027 C 161.635 242.231,161.463 242.368,161.078 242.368 C 160.725 242.368,160.436 242.503,160.436 242.669 C 160.436 242.835,160.646 242.890,160.903 242.792 C 161.160 242.693,161.371 242.768,161.371 242.957 C 161.371 243.684,163.982 243.334,164.567 242.528 C 165.347 241.456,165.268 164.973,164.486 164.479 C 163.853 164.079,129.072 164.073,128.825 164.472 M224.611 257.580 C 224.611 257.986,224.240 258.256,223.939 258.070 C 223.617 257.871,223.895 257.321,224.317 257.321 C 224.479 257.321,224.611 257.438,224.611 257.580 " stroke="none" fill="#04bc5c" fill-rule="evenodd"></path></g></svg>